<svg xmlns="http://www.w3.org/2000/svg" viewBox="0 0 100 100" width="100" height="100">
  <!-- green T-rex on a transparent background -->
  <path fill="#10b981" d="
    M12,68
    Q28,60 32,54
    Q36,40 46,36
    Q50,22 66,20
    L86,20
    L86,34
    L72,34
    L70,42
    Q60,44 56,52
    Q54,58 56,64
    L60,82 L50,82 L48,64
    Q40,66 34,64
    L32,82 L22,82 L22,60
    Q16,62 12,68 Z"/>
  <!-- tiny arm -->
  <path fill="#10b981" d="M56,50 L66,54 L60,58 Z"/>
  <!-- eye -->
  <circle cx="78" cy="27" r="2.6" fill="#06241a"/>
</svg>
